<?xml version="1.0" encoding="UTF-8"?>
<!DOCTYPE svg PUBLIC "-//W3C//DTD SVG 1.1//EN" "http://www.w3.org/Graphics/SVG/1.1/DTD/svg11.dtd">
<svg xmlns="http://www.w3.org/2000/svg" version="1.1" width="1024px" height="1024px" style="shape-rendering:geometricPrecision; text-rendering:geometricPrecision; image-rendering:optimizeQuality; fill-rule:evenodd; clip-rule:evenodd" xmlns:xlink="http://www.w3.org/1999/xlink">
<g><path style="opacity:0.99" fill="#000000" d="M 841.5,607.5 C 823.071,617.877 803.738,626.377 783.5,633C 730.889,647.4 683.889,637.067 642.5,602C 579.097,546.686 546.93,476.852 546,392.5C 546.537,383.985 548.037,375.652 550.5,367.5C 549.398,366.824 548.398,366.158 547.5,365.5C 548.5,365.5 549.5,365.5 550.5,365.5C 557.076,337.845 570.742,314.345 591.5,295C 614.658,275.915 640.658,261.749 669.5,252.5C 673.564,229.223 677.397,205.89 681,182.5C 683.761,162.448 689.761,143.448 699,125.5C 715.241,102.653 735.741,98.1525 760.5,112C 766.104,115.716 771.604,119.549 777,123.5C 801.063,119.193 817.063,128.527 825,151.5C 828.287,173.437 819.787,188.604 799.5,197C 773.559,201.954 757.059,191.787 750,166.5C 749.67,160.479 749.67,154.479 750,148.5C 745.067,143.615 739.233,140.782 732.5,140C 724.932,151.36 720.098,163.86 718,177.5C 713.632,199.707 710.132,222.04 707.5,244.5C 736.332,241.389 764.999,242.222 793.5,247C 808.346,216.141 823.846,185.641 840,155.5C 846.416,145.182 853.916,135.682 862.5,127C 885.221,110.161 906.387,111.994 926,132.5C 929.695,137.362 933.195,142.362 936.5,147.5C 962.397,150.889 975.231,165.556 975,191.5C 970.851,212.256 958.184,223.589 937,225.5C 913.505,223.338 900.671,210.505 898.5,187C 898.73,178.811 901.064,171.311 905.5,164.5C 901.833,158.833 897.167,154.167 891.5,150.5C 885.908,153.258 881.408,157.258 878,162.5C 874.333,168.167 870.667,173.833 867,179.5C 854.182,205.136 841.349,230.802 828.5,256.5C 927.459,288.73 966.959,356.063 947,458.5C 934.447,510.991 907.947,554.825 867.5,590C 858.929,596.088 850.262,601.921 841.5,607.5 Z"/></g>
<g><path style="opacity:1" fill="#fbfbfb" d="M 671.5,312.5 C 704.421,310.374 729.254,323.374 746,351.5C 761.194,385.487 755.694,415.653 729.5,442C 705.846,460.688 679.846,464.688 651.5,454C 618.178,436.525 604.011,409.025 609,371.5C 617.785,338.877 638.618,319.21 671.5,312.5 Z"/></g>
<g><path style="opacity:1" fill="#fbfbfb" d="M 842.5,312.5 C 880.658,310.82 907.158,327.487 922,362.5C 931.687,399.453 920.853,428.62 889.5,450C 849.498,468.874 816.331,460.707 790,425.5C 778.016,403.23 776.35,380.23 785,356.5C 796.823,332.171 815.989,317.504 842.5,312.5 Z"/></g>
<g><path style="opacity:1" fill="#020202" d="M 669.5,328.5 C 699.76,326.05 719.26,339.383 728,368.5C 733.17,393.654 726.337,414.82 707.5,432C 679.88,447.847 657.047,442.681 639,416.5C 624.517,387.236 628.684,361.069 651.5,338C 657.15,334.01 663.15,330.843 669.5,328.5 Z"/></g>
<g><path style="opacity:1" fill="#020202" d="M 845.5,327.5 C 874.665,328.504 892.831,343.17 900,371.5C 903.509,393.655 897.676,412.822 882.5,429C 870.321,439.389 856.321,443.056 840.5,440C 819.469,432.482 806.969,417.649 803,395.5C 799.093,371.205 806.593,351.372 825.5,336C 831.893,332.266 838.56,329.433 845.5,327.5 Z"/></g>
<g><path style="opacity:1" fill="#fafafa" d="M 680.5,338.5 C 697.158,336.707 704.992,344.04 704,360.5C 698.551,373.297 689.384,376.797 676.5,371C 664.937,358.547 666.271,347.714 680.5,338.5 Z"/></g>
<g><path style="opacity:1" fill="#fcfcfc" d="M 852.5,338.5 C 869.316,337.149 876.816,344.816 875,361.5C 869.908,372.763 861.408,376.263 849.5,372C 839.751,364.527 837.918,355.36 844,344.5C 846.637,342.109 849.47,340.109 852.5,338.5 Z"/></g>
<g><path style="opacity:1" fill="#fd0000" d="M 547.5,365.5 C 548.398,366.158 549.398,366.824 550.5,367.5C 548.037,375.652 546.537,383.985 546,392.5C 546.93,476.852 579.097,546.686 642.5,602C 683.889,637.067 730.889,647.4 783.5,633C 803.738,626.377 823.071,617.877 841.5,607.5C 846.504,619.846 850.504,632.512 853.5,645.5C 853.41,648.152 854.076,650.485 855.5,652.5C 866.491,693.378 870.157,735.045 866.5,777.5C 834.834,786.033 802.834,793.033 770.5,798.5C 755.525,801.274 740.525,803.94 725.5,806.5C 718.282,808.055 710.948,809.055 703.5,809.5C 688.853,811.719 674.186,813.719 659.5,815.5C 515.188,831.494 370.855,831.494 226.5,815.5C 211.739,812.788 196.739,810.788 181.5,809.5C 173.126,808.352 164.793,807.018 156.5,805.5C 141.754,803.217 127.087,800.551 112.5,797.5C 96.0034,794.934 79.67,791.601 63.5,787.5C 62.9518,785.374 62.2852,783.374 61.5,781.5C 57.2647,738.465 60.598,696.132 71.5,654.5C 72.9238,652.485 73.5905,650.152 73.5,647.5C 81.2748,617.158 92.9415,588.492 108.5,561.5C 109.906,561.027 110.573,560.027 110.5,558.5C 110.66,556.847 111.326,555.514 112.5,554.5C 113.906,554.027 114.573,553.027 114.5,551.5C 115.11,549.566 116.11,547.899 117.5,546.5C 118.906,546.027 119.573,545.027 119.5,543.5C 121.673,539.148 124.34,535.148 127.5,531.5C 128.906,531.027 129.573,530.027 129.5,528.5C 133.016,522.8 137.016,517.467 141.5,512.5C 142.906,512.027 143.573,511.027 143.5,509.5C 145.117,506.216 147.45,503.549 150.5,501.5C 151.906,501.027 152.573,500.027 152.5,498.5C 153.5,496.833 154.833,495.5 156.5,494.5C 158.262,493.738 159.262,492.404 159.5,490.5C 166.167,483.167 173.167,476.167 180.5,469.5C 184.436,467.234 187.769,464.234 190.5,460.5C 190.5,459.833 190.833,459.5 191.5,459.5C 194.427,458.243 196.761,456.243 198.5,453.5C 199.891,451.11 201.891,449.443 204.5,448.5C 206.749,447.92 208.415,446.587 209.5,444.5C 219.996,435.341 231.329,427.341 243.5,420.5C 245.027,420.573 246.027,419.906 246.5,418.5C 246.842,417.662 247.508,417.328 248.5,417.5C 250.027,417.573 251.027,416.906 251.5,415.5C 251.842,414.662 252.508,414.328 253.5,414.5C 255.027,414.573 256.027,413.906 256.5,412.5C 257.514,411.326 258.847,410.66 260.5,410.5C 262.027,410.573 263.027,409.906 263.5,408.5C 283.589,397.243 304.589,387.91 326.5,380.5C 329.716,380.655 332.383,379.655 334.5,377.5C 339.378,375.764 344.378,374.43 349.5,373.5C 352.152,373.59 354.485,372.924 356.5,371.5C 410.307,356.984 464.973,353.484 520.5,361C 529.59,362.084 538.59,363.584 547.5,365.5 Z"/></g>
<g><path style="opacity:0.949" fill="#9b0605" d="M 356.5,371.5 C 354.485,372.924 352.152,373.59 349.5,373.5C 351.515,372.076 353.848,371.41 356.5,371.5 Z"/></g>
<g><path style="opacity:0.902" fill="#870a07" d="M 334.5,377.5 C 332.383,379.655 329.716,380.655 326.5,380.5C 328.936,379.129 331.603,378.129 334.5,377.5 Z"/></g>
<g><path style="opacity:1" fill="#010000" d="M 397.5,398.5 C 448.193,397.714 480.027,421.714 493,470.5C 496.998,508.231 483.498,537.731 452.5,559C 411.068,579.93 374.234,573.763 342,540.5C 323.007,515.938 317.673,488.605 326,458.5C 338.486,424.838 362.319,404.838 397.5,398.5 Z"/></g>
<g><path style="opacity:0.765" fill="#720705" d="M 263.5,408.5 C 263.027,409.906 262.027,410.573 260.5,410.5C 260.973,409.094 261.973,408.427 263.5,408.5 Z"/></g>
<g><path style="opacity:0.78" fill="#730706" d="M 256.5,412.5 C 256.027,413.906 255.027,414.573 253.5,414.5C 253.973,413.094 254.973,412.427 256.5,412.5 Z"/></g>
<g><path style="opacity:0.776" fill="#740706" d="M 251.5,415.5 C 251.027,416.906 250.027,417.573 248.5,417.5C 248.973,416.094 249.973,415.427 251.5,415.5 Z"/></g>
<g><path style="opacity:0.729" fill="#6c0b05" d="M 246.5,418.5 C 246.027,419.906 245.027,420.573 243.5,420.5C 243.973,419.094 244.973,418.427 246.5,418.5 Z"/></g>
<g><path style="opacity:0.937" fill="#920a07" d="M 209.5,444.5 C 208.415,446.587 206.749,447.92 204.5,448.5C 205.585,446.413 207.251,445.08 209.5,444.5 Z"/></g>
<g><path style="opacity:0.847" fill="#8e0d07" d="M 198.5,453.5 C 196.761,456.243 194.427,458.243 191.5,459.5C 193.239,456.757 195.573,454.757 198.5,453.5 Z"/></g>
<g><path style="opacity:0.949" fill="#9d0908" d="M 190.5,460.5 C 187.769,464.234 184.436,467.234 180.5,469.5C 183.231,465.766 186.564,462.766 190.5,460.5 Z"/></g>
<g><path style="opacity:0.722" fill="#641104" d="M 159.5,490.5 C 159.262,492.404 158.262,493.738 156.5,494.5C 156.738,492.596 157.738,491.262 159.5,490.5 Z"/></g>
<g><path style="opacity:0.706" fill="#661104" d="M 152.5,498.5 C 152.573,500.027 151.906,501.027 150.5,501.5C 150.427,499.973 151.094,498.973 152.5,498.5 Z"/></g>
<g><path style="opacity:0.722" fill="#661104" d="M 143.5,509.5 C 143.573,511.027 142.906,512.027 141.5,512.5C 141.427,510.973 142.094,509.973 143.5,509.5 Z"/></g>
<g><path style="opacity:0.569" fill="#740c04" d="M 129.5,528.5 C 129.573,530.027 128.906,531.027 127.5,531.5C 127.427,529.973 128.094,528.973 129.5,528.5 Z"/></g>
<g><path style="opacity:1" fill="#f7f7f7" d="M 690.5,535.5 C 692.857,535.337 695.19,535.503 697.5,536C 738.544,567.149 781.544,569.815 826.5,544C 830.666,541.083 834.999,538.416 839.5,536C 846.743,534.902 849.243,537.735 847,544.5C 822.27,562.521 794.603,572.188 764,573.5C 735.62,571.805 710.62,561.805 689,543.5C 688.109,540.502 688.609,537.836 690.5,535.5 Z"/></g>
<g><path style="opacity:0.467" fill="#680b04" d="M 119.5,543.5 C 119.573,545.027 118.906,546.027 117.5,546.5C 117.427,544.973 118.094,543.973 119.5,543.5 Z"/></g>
<g><path style="opacity:0.349" fill="#550a03" d="M 114.5,551.5 C 114.573,553.027 113.906,554.027 112.5,554.5C 112.427,552.973 113.094,551.973 114.5,551.5 Z"/></g>
<g><path style="opacity:0.392" fill="#5f0a03" d="M 110.5,558.5 C 110.573,560.027 109.906,561.027 108.5,561.5C 108.427,559.973 109.094,558.973 110.5,558.5 Z"/></g>
<g><path style="opacity:1" fill="#010000" d="M 182.5,605.5 C 228.163,601.401 260.33,620.068 279,661.5C 290.316,699.874 281.149,732.374 251.5,759C 217.296,782.87 182.63,783.537 147.5,761C 115.23,733.842 105.397,700.009 118,659.5C 130.643,630.782 152.143,612.782 182.5,605.5 Z"/></g>
<g><path style="opacity:1" fill="#000000" d="M 546.5,621.5 C 591.286,617.131 623.12,635.131 642,675.5C 654.479,714.422 645.646,747.588 615.5,775C 581.777,798.448 547.444,799.448 512.5,778C 479.91,751.558 469.41,718.058 481,677.5C 493.241,647.483 515.075,628.816 546.5,621.5 Z"/></g>
<g><path style="opacity:0.961" fill="#920706" d="M 853.5,645.5 C 854.924,647.515 855.59,649.848 855.5,652.5C 854.076,650.485 853.41,648.152 853.5,645.5 Z"/></g>
<g><path style="opacity:0.737" fill="#8b0605" d="M 73.5,647.5 C 73.5905,650.152 72.9238,652.485 71.5,654.5C 71.4095,651.848 72.0762,649.515 73.5,647.5 Z"/></g>
<g><path style="opacity:0.447" fill="#700501" d="M 61.5,781.5 C 62.2852,783.374 62.9518,785.374 63.5,787.5C 61.6921,786.082 61.0254,784.082 61.5,781.5 Z"/></g>
<g><path style="opacity:0.964" fill="#000000" d="M 112.5,797.5 C 127.087,800.551 141.754,803.217 156.5,805.5C 149.991,822.025 143.324,838.525 136.5,855C 149.61,865.394 163.277,875.061 177.5,884C 178.022,884.561 178.355,885.228 178.5,886C 171.755,897.563 164.088,908.397 155.5,918.5C 130.858,902.173 106.524,885.34 82.5,868C 89.3338,859.818 94.5004,850.652 98,840.5C 103.643,826.568 109.476,812.735 115.5,799C 114.263,798.768 113.263,798.268 112.5,797.5 Z"/></g>
<g><path style="opacity:0.965" fill="#000000" d="M 770.5,798.5 C 770.389,799.117 770.056,799.617 769.5,800C 776.709,811.585 784.042,823.085 791.5,834.5C 803.688,829.274 816.021,824.774 828.5,821C 833.398,833.19 838.398,845.357 843.5,857.5C 818.979,868.174 794.146,878.174 769,887.5C 768.228,887.355 767.561,887.022 767,886.5C 762.253,873.258 756.92,860.258 751,847.5C 742.489,833.805 733.989,820.139 725.5,806.5C 740.525,803.94 755.525,801.274 770.5,798.5 Z"/></g>
<g><path style="opacity:0.967" fill="#000000" d="M 181.5,809.5 C 196.739,810.788 211.739,812.788 226.5,815.5C 229.833,827.833 233.167,840.167 236.5,852.5C 251.006,848.108 265.34,843.108 279.5,837.5C 284.985,850.12 289.985,862.953 294.5,876C 267.271,886.296 239.938,895.963 212.5,905C 209.129,895.721 205.462,886.554 201.5,877.5C 195.023,854.741 188.357,832.074 181.5,809.5 Z"/></g>
<g><path style="opacity:0.966" fill="#000000" d="M 703.5,809.5 C 702.528,810.399 701.862,811.566 701.5,813C 698.356,829.219 695.023,845.385 691.5,861.5C 704.713,867.939 717.713,874.606 730.5,881.5C 725.027,893.779 719.027,905.779 712.5,917.5C 689.046,906.022 665.546,894.689 642,883.5C 643.991,877.83 646.325,872.163 649,866.5C 652.312,849.44 655.812,832.44 659.5,815.5C 674.186,813.719 688.853,811.719 703.5,809.5 Z"/></g>
</svg>
